<svg width="48" height="48" viewBox="0 0 48 48" fill="none" xmlns="http://www.w3.org/2000/svg">
<path d="M0.613311 21.6808L23.9999 32.1383L47.3864 21.6808C48.2045 21.3153 48.2045 20.1541 47.3864 19.7882L24.4232 9.52005C24.1537 9.39957 23.8461 9.39957 23.5765 9.52005L0.613311 19.7882C-0.204437 20.1541 -0.204437 21.3153 0.613311 21.6808Z" fill="url(#paint0_linear_1947_315)"/>
<path d="M47.386 19.7864L24.4228 9.51828C24.1533 9.3978 23.846 9.39743 23.5769 9.51791C23.0239 9.76547 22.0981 10.1793 21.8744 10.2793C24.7264 11.5548 37.9323 17.4599 43.1362 19.7868C43.9543 20.1527 43.9535 21.3135 43.1354 21.679L40.9012 22.678L40.7847 22.592C33.3994 17.1171 24.4356 16.8048 24.0577 16.7941L23.9995 16.7923L23.9412 16.7941C23.5633 16.8048 14.5996 17.1171 7.21423 22.592L6.37561 23.2134L6.37561 24.256C12.254 26.8843 23.9995 32.1365 23.9995 32.1365L41.6233 24.256L47.3857 21.679C48.2038 21.3135 48.2038 20.1523 47.386 19.7864Z" fill="black" fill-opacity="0.35"/>
<path d="M24.4657 39.1421C28.7906 36.9195 35.9987 36.2186 38.5875 36.0322C39.1302 35.993 39.5499 35.5418 39.5499 34.998V24.2582C32.604 19.1093 23.9995 18.8672 23.9995 18.8672C23.9995 18.8672 15.3946 19.1093 8.44873 24.2582L8.44873 34.9984C8.44873 35.5422 8.86877 35.9934 9.41113 36.0322C11.9999 36.2186 19.2084 36.9195 23.5329 39.1421C23.8255 39.2922 24.1734 39.2922 24.4657 39.1421Z" fill="url(#paint1_linear_1947_315)"/>
<path d="M36.4405 32.2062C36.4405 33.244 35.6736 34.1225 34.6446 34.2606C31.5911 34.67 27.721 35.4178 24.8928 36.7527C24.327 37.0196 23.6751 37.0211 23.1097 36.7538C17.6931 34.1958 8.44922 33.7937 8.44922 33.7937V34.9959C8.44922 35.5398 8.86926 35.9909 9.41162 36.0301C12.0004 36.2162 19.2088 36.9171 23.5334 39.1396C23.826 39.2898 24.1739 39.2898 24.4662 39.1396C28.7911 36.9171 35.9992 36.2162 38.5879 36.0301C39.1307 35.9909 39.5503 35.5398 39.5503 34.9959V24.2561C38.5385 23.5057 37.4911 22.8605 36.4401 22.3042V32.2062H36.4405Z" fill="black" fill-opacity="0.35"/>
<path fill-rule="evenodd" clip-rule="evenodd" d="M34.7303 29.7919V14.1273L33.175 13.4326V29.7919C32.3566 30.1049 31.7756 30.8975 31.7756 31.8261C31.7756 32.911 32.5692 33.8105 33.6079 33.9757L32.3028 37.4101C32.1482 37.8173 32.4489 38.2531 32.8843 38.2531H35.0201C35.4558 38.2531 35.7565 37.8173 35.6016 37.4101L34.2965 33.9758C35.3354 33.811 36.1295 32.9114 36.1295 31.8261C36.1295 30.8974 35.5485 30.1049 34.7303 29.7919Z" fill="#F5D03F"/>
<path fill-rule="evenodd" clip-rule="evenodd" d="M34.7303 29.7919V14.1273L33.175 13.4326V29.7919C32.3566 30.1049 31.7756 30.8975 31.7756 31.8261C31.7756 32.911 32.5692 33.8105 33.6079 33.9757L32.3028 37.4101C32.1482 37.8173 32.4489 38.2531 32.8843 38.2531H35.0201C35.4558 38.2531 35.7565 37.8173 35.6016 37.4101L34.2965 33.9758C35.3354 33.811 36.1295 32.9114 36.1295 31.8261C36.1295 30.8974 35.5485 30.1049 34.7303 29.7919Z" fill="url(#paint2_linear_1947_315)"/>
<path d="M34.847 29.8433C34.9705 30.1165 35.0408 30.4189 35.0408 30.7379C35.0408 31.9402 34.0659 32.915 32.8636 32.915C32.5447 32.915 32.2422 32.8447 31.969 32.7213C32.3107 33.4768 33.0691 34.0034 33.9524 34.0034C35.1547 34.0034 36.1291 33.0289 36.1291 31.8267C36.1291 30.9434 35.6025 30.1849 34.847 29.8433Z" fill="#E16C00"/>
<defs>
<linearGradient id="paint0_linear_1947_315" x1="6.82792" y1="17.1992" x2="42.3802" y2="22.6144" gradientUnits="userSpaceOnUse">
<stop stop-color="#3520D8"/>
<stop offset="1" stop-color="#1C145A"/>
</linearGradient>
<linearGradient id="paint1_linear_1947_315" x1="9.65309" y1="24.7324" x2="36.7293" y2="36.0338" gradientUnits="userSpaceOnUse">
<stop stop-color="#4630F0"/>
<stop offset="1" stop-color="#1C145A"/>
</linearGradient>
<linearGradient id="paint2_linear_1947_315" x1="30.9944" y1="33.6524" x2="40.9519" y2="30.0778" gradientUnits="userSpaceOnUse">
<stop stop-color="#FF6A21"/>
<stop offset="1" stop-color="#FFDC68"/>
</linearGradient>
</defs>
</svg>
