<svg width="48" height="48" viewBox="0 0 48 48" fill="none" xmlns="http://www.w3.org/2000/svg">
<path d="M6.21876 39.6383L8.36205 41.7816C9.14309 42.5626 10.4094 42.5626 11.1904 41.7816L41.781 11.191C42.5621 10.41 42.5621 9.14367 41.781 8.36263L39.6377 6.21935C38.8567 5.4383 37.5904 5.43831 36.8093 6.21935L6.21876 36.8099C5.43772 37.591 5.43772 38.8573 6.21876 39.6383Z" fill="#C5C9F7"/>
<path d="M6.21876 39.6383L8.36205 41.7816C9.14309 42.5626 10.4094 42.5626 11.1904 41.7816L41.781 11.191C42.5621 10.41 42.5621 9.14367 41.781 8.36263L39.6377 6.21935C38.8567 5.4383 37.5904 5.43831 36.8093 6.21935L6.21876 36.8099C5.43772 37.591 5.43772 38.8573 6.21876 39.6383Z" fill="url(#paint0_linear_1947_304)"/>
<path d="M40.8274 22.0877L25.9121 7.17239L28.398 4.68648C29.3133 3.77117 30.7973 3.77117 31.7125 4.68648L43.3133 16.2873C44.2286 17.2026 44.2286 18.6866 43.3133 19.6018L40.8274 22.0877Z" fill="#1689FC"/>
<path d="M40.8274 22.0877L25.9121 7.17239L28.398 4.68648C29.3133 3.77117 30.7973 3.77117 31.7125 4.68648L43.3133 16.2873C44.2286 17.2026 44.2286 18.6866 43.3133 19.6018L40.8274 22.0877Z" fill="url(#paint1_linear_1947_304)"/>
<path d="M40.8274 22.0877L25.9121 7.17239L28.398 4.68648C29.3133 3.77117 30.7973 3.77117 31.7125 4.68648L43.3133 16.2873C44.2286 17.2026 44.2286 18.6866 43.3133 19.6018L40.8274 22.0877Z" fill="url(#paint2_linear_1947_304)"/>
<path d="M37.5128 27.0594L20.9402 10.4868C20.4825 10.0292 20.4825 9.28722 20.9402 8.82956L22.5974 7.17232C23.5127 6.25701 24.9967 6.25701 25.9119 7.17232L40.8273 22.0877C41.7426 23.003 41.7426 24.487 40.8273 25.4022L39.17 27.0594C38.7124 27.5171 37.9704 27.5171 37.5128 27.0594Z" fill="#17ACE8"/>
<path d="M37.5128 27.0594L20.9402 10.4868C20.4825 10.0292 20.4825 9.28722 20.9402 8.82956L22.5974 7.17232C23.5127 6.25701 24.9967 6.25701 25.9119 7.17232L40.8273 22.0877C41.7426 23.003 41.7426 24.487 40.8273 25.4022L39.17 27.0594C38.7124 27.5171 37.9704 27.5171 37.5128 27.0594Z" fill="url(#paint3_linear_1947_304)"/>
<path d="M37.5128 27.0594L20.9402 10.4868C20.4825 10.0292 20.4825 9.28722 20.9402 8.82956L22.5974 7.17232C23.5127 6.25701 24.9967 6.25701 25.9119 7.17232L40.8273 22.0877C41.7426 23.003 41.7426 24.487 40.8273 25.4022L39.17 27.0594C38.7124 27.5171 37.9704 27.5171 37.5128 27.0594Z" fill="url(#paint4_linear_1947_304)"/>
<path d="M7.17251 25.9121L22.0879 40.8275L19.602 43.3134C18.6867 44.2287 17.2027 44.2287 16.2875 43.3134L4.6866 31.7125C3.7713 30.7972 3.7713 29.3132 4.6866 28.398L7.17251 25.9121Z" fill="#1689FC"/>
<path d="M7.17251 25.9121L22.0879 40.8275L19.602 43.3134C18.6867 44.2287 17.2027 44.2287 16.2875 43.3134L4.6866 31.7125C3.7713 30.7972 3.7713 29.3132 4.6866 28.398L7.17251 25.9121Z" fill="url(#paint5_linear_1947_304)"/>
<path d="M10.4871 20.9394L27.0597 37.5121C27.5173 37.9697 27.5173 38.7117 27.0597 39.1693L25.4024 40.8266C24.4871 41.7419 23.0032 41.7419 22.0879 40.8266L7.17256 25.9112C6.25726 24.9959 6.25726 23.512 7.17256 22.5967L8.82981 20.9395C9.28746 20.4818 10.0294 20.4818 10.4871 20.9394Z" fill="#17ACE8"/>
<path d="M10.4871 20.9394L27.0597 37.5121C27.5173 37.9697 27.5173 38.7117 27.0597 39.1693L25.4024 40.8266C24.4871 41.7419 23.0032 41.7419 22.0879 40.8266L7.17256 25.9112C6.25726 24.9959 6.25726 23.512 7.17256 22.5967L8.82981 20.9395C9.28746 20.4818 10.0294 20.4818 10.4871 20.9394Z" fill="url(#paint6_linear_1947_304)"/>
<path d="M10.4871 20.9394L27.0597 37.5121C27.5173 37.9697 27.5173 38.7117 27.0597 39.1693L25.4024 40.8266C24.4871 41.7419 23.0032 41.7419 22.0879 40.8266L7.17256 25.9112C6.25726 24.9959 6.25726 23.512 7.17256 22.5967L8.82981 20.9395C9.28746 20.4818 10.0294 20.4818 10.4871 20.9394Z" fill="url(#paint7_linear_1947_304)"/>
<defs>
<linearGradient id="paint0_linear_1947_304" x1="38.0001" y1="4.50049" x2="43.5001" y2="10.0005" gradientUnits="userSpaceOnUse">
<stop stop-color="#F6FDFF"/>
<stop offset="0.76349" stop-color="#BDDCDC"/>
</linearGradient>
<linearGradient id="paint1_linear_1947_304" x1="26.6125" y1="9.2036" x2="43.815" y2="13.9104" gradientUnits="userSpaceOnUse">
<stop stop-color="#4630F0"/>
<stop offset="1" stop-color="#1C145A"/>
</linearGradient>
<linearGradient id="paint2_linear_1947_304" x1="26.6125" y1="9.2036" x2="43.815" y2="13.9104" gradientUnits="userSpaceOnUse">
<stop stop-color="#7930F0"/>
<stop offset="1" stop-color="#37145A"/>
</linearGradient>
<linearGradient id="paint3_linear_1947_304" x1="29.0001" y1="4.99951" x2="43.4241" y2="22.5389" gradientUnits="userSpaceOnUse">
<stop stop-color="#4A32FF"/>
<stop offset="1" stop-color="#2F219B"/>
</linearGradient>
<linearGradient id="paint4_linear_1947_304" x1="25.0001" y1="6.99951" x2="42.5105" y2="21.5845" gradientUnits="userSpaceOnUse">
<stop stop-color="#6F58FC"/>
<stop offset="1" stop-color="#422178"/>
</linearGradient>
<linearGradient id="paint5_linear_1947_304" x1="4.70055" y1="31.1157" x2="21.9031" y2="35.8225" gradientUnits="userSpaceOnUse">
<stop stop-color="#7930F0"/>
<stop offset="1" stop-color="#37145A"/>
</linearGradient>
<linearGradient id="paint6_linear_1947_304" x1="7.29607" y1="26.6137" x2="27.1892" y2="32.0567" gradientUnits="userSpaceOnUse">
<stop stop-color="#4A32FF"/>
<stop offset="1" stop-color="#2F219B"/>
</linearGradient>
<linearGradient id="paint7_linear_1947_304" x1="7.29607" y1="26.6137" x2="27.1892" y2="32.0567" gradientUnits="userSpaceOnUse">
<stop stop-color="#6F58FC"/>
<stop offset="1" stop-color="#422178"/>
</linearGradient>
</defs>
</svg>
