<svg width="17" height="15" viewBox="0 0 17 15" fill="none" xmlns="http://www.w3.org/2000/svg">
<path fill-rule="evenodd" clip-rule="evenodd" d="M14.6493 7.72059C14.6493 4.05514 12.1269 1.98529 11.1567 1.32353L11.8843 0C13.3396 0.882353 16.25 3.33414 16.25 7.72059C16.25 12.107 13.3396 14.3382 11.8843 15L11.1567 13.6765C12.3694 13.0147 14.6493 11.386 14.6493 7.72059ZM11.1567 7.50005C11.1567 5.75321 10.0359 4.78057 9.58307 4.54522L10.305 3.39607C11.1458 3.83296 12.6119 5.21328 12.6119 7.50005C12.6119 9.78683 11.1458 11.1671 10.305 11.604L9.58307 10.4549C10.0359 10.2195 11.1567 9.24689 11.1567 7.50005ZM0 5.73529V9.70588H3.8806L8.73134 13.6765V1.76471L3.8806 5.73529H0Z" fill="#4FC87B"/>
</svg>
